<svg xmlns="http://www.w3.org/2000/svg" viewBox="0 0 100 100"><defs><style>.cls-1{fill:#e8f6fe;}.cls-2{fill:#60bae9;}</style></defs><g id="Layer_2" data-name="Layer 2"><g id="Layer_2-2" data-name="Layer 2"><path class="cls-1" d="M10.21,44.5,6,46.52C3.5,47.74,5.28,52.05,8,51.09a100.24,100.24,0,0,1,9.74-3l-1.33-4.82a11.37,11.37,0,0,0-4.62,2.4C10,47.15,11.47,50,13.51,50a37.31,37.31,0,0,0,12.86-2.23,2.58,2.58,0,0,0,1.83-2.41,2.51,2.51,0,0,0-1.83-2.41,12.14,12.14,0,0,0-9,1.55c-2.23,1.45-1.12,4.34,1.27,4.65a69.35,69.35,0,0,0,19.83-.32c2.87-.45,2-4.84-.66-4.91l-7.6-.2c-3.23-.08-3.21,4.88,0,5,7.28.29,14.58.22,21.85-.21,3.6-.22,7.18-.52,10.76-.91,1.56-.17,3.13-.44,4.71-.5a7.23,7.23,0,0,1,1.55.05l.57.14c.21,0,.25.28.11,0l2.15-3.76a110.72,110.72,0,0,1-15.24.38c-3.21-.14-3.21,4.87,0,5a110.72,110.72,0,0,0,15.24-.38c1.78-.17,3.27-2,2.16-3.76-1.76-2.75-5.14-2.93-8.09-2.59-4,.46-8,.88-12,1.15a219.93,219.93,0,0,1-23.81.34v5l7.6.2L37.12,44a64.79,64.79,0,0,1-18.5.14l1.26,4.66a7,7,0,0,1,5.16-1V42.93a33.36,33.36,0,0,1-11.53,2l1.77,4.27a5.8,5.8,0,0,1,2.41-1.12c3.11-.79,1.79-5.6-1.33-4.82a100.24,100.24,0,0,0-9.74,3l1.93,4.57,4.18-2a2.52,2.52,0,0,0,.9-3.42,2.56,2.56,0,0,0-3.42-.9Z"/><path class="cls-1" d="M47.37,47.13a4.11,4.11,0,0,0-5,2.75,6.44,6.44,0,0,0,0,2.93c.09.61.19,1.22.32,1.82a10.86,10.86,0,0,0,1.6,3.92,2.92,2.92,0,0,0,1.27,1.14,2.63,2.63,0,0,0,1.73.11,3.28,3.28,0,0,0,1.47-.86,4.15,4.15,0,0,0,1-2.85l.18-5a2.53,2.53,0,0,0-2.5-2.5,2.56,2.56,0,0,0-2.5,2.5l-.1,2.81c0,.89,0,1.8-.1,2.68l.09-.67a2.11,2.11,0,0,1-.09.36l.25-.6a1.83,1.83,0,0,1-.13.24l.39-.51a.34.34,0,0,1-.12.12l.51-.39-.16.08L46,55,46,55l.66-.09h-.09l2.15,1.24a7.49,7.49,0,0,1-.79-1.41l.25.6a17.09,17.09,0,0,1-1-4.12l.09.67a5,5,0,0,1,0-1l-.09.67a3,3,0,0,1,.13-.52l-.25.6a2.85,2.85,0,0,1,.16-.3l-.39.51a2.06,2.06,0,0,1,.29-.3l-.5.39a2.77,2.77,0,0,1,.37-.22l-.6.25a2.9,2.9,0,0,1,.42-.12l-.67.09a1.62,1.62,0,0,1,.44,0l-.67-.09L46,52a2.52,2.52,0,0,0,3.08-1.74,2.56,2.56,0,0,0-1.75-3.08Z"/><path class="cls-1" d="M43.47,56.73a15.51,15.51,0,0,0-.14,6.88c.15,1,.35,1.94.5,2.92,0,.11.18,1,.07.38,0,.2.05.42.07.62A15.54,15.54,0,0,1,44,69.2a2.5,2.5,0,0,0,5,0A17.41,17.41,0,0,0,48.4,64a2.52,2.52,0,0,0-3.07-1.74,2.54,2.54,0,0,0-1.75,3.07c.1.35.19.71.26,1.06,0,.18.07.36.1.54s.18.53,0,.08A3.16,3.16,0,0,1,44,68a11.81,11.81,0,0,1,0,1.19h5a35.22,35.22,0,0,0-.77-6.3c0-.21-.07-.41-.11-.62l-.06-.42c0,.32,0,.33,0,0-.05-.48-.1-1-.11-1.44A4.62,4.62,0,0,1,48.05,59l0,.26c0-.14.05-.27.07-.41s.13-.54.21-.81a2.5,2.5,0,0,0-4.82-1.33Z"/><path class="cls-1" d="M43.4,73.91c0,3,.05,6,.26,9.07.19,2.59.24,6.78,3.92,6.62a2.53,2.53,0,0,0,2.5-2.5,61.76,61.76,0,0,0-2.92-18.74c-.81-2.56-5.14-2.28-4.91.66a67.08,67.08,0,0,0,3.14,16.12c.87,2.59,2,5,5.15,5.07,2.56.06,5.38-1.09,7.72-2A2.58,2.58,0,0,0,60,85.09a2.53,2.53,0,0,0-3.07-1.74,15.84,15.84,0,0,1-6.39.43,2.62,2.62,0,0,0-2.82,1.15,2.52,2.52,0,0,0,.39,3A11.71,11.71,0,0,0,55.41,91a4.37,4.37,0,0,0,.94,0l-.55-.33-.24-1.32c-.11,0-.89.54-1,.61a12.78,12.78,0,0,1-3.17,1.14,26,26,0,0,1-6.93.48c-1.3,0-2.6-.14-3.9-.26a8.9,8.9,0,0,1-3-.45c-2.86-1.47-5.39,2.84-2.53,4.32a13.38,13.38,0,0,0,4.93,1.07c1.64.16,3.28.29,4.92.34a26.73,26.73,0,0,0,9.7-1.22c2.89-1,7.69-3.72,5.36-7.5-1.06-1.73-2.71-1.75-4.5-1.91a6.29,6.29,0,0,1-3.77-1.6L49.21,88.6a22.1,22.1,0,0,0,9-.43l-1.33-4.82a25.3,25.3,0,0,1-5.87,1.83c-1.22.15,0-.07-.21.29,0,0-.39-.94-.34-.77-.36-1-.7-2.07-1-3.12A62.35,62.35,0,0,1,47.25,69l-4.91.67A56.87,56.87,0,0,1,45.08,87.1l2.5-2.5.13,0,1.1.64c.11.09.08.53,0-.37,0-.48-.09-1-.12-1.43-.08-1-.14-2.07-.19-3.1-.1-2.15-.13-4.3-.11-6.45,0-3.22-5-3.22-5,0Z"/><path class="cls-1" d="M61.5,52.58h.39c.09,0,.45,0,0,0s0,0,.11,0l.29.08c.12,0,.23.09.35.12.29.08-.44-.22-.18-.07s.41.2.61.31c.91.5,1.78,1,2.74,1.46a7.2,7.2,0,0,0,3.89.53l.64-.08.3,0-.25,0a2.41,2.41,0,0,1,.85,0c.27,0-.45-.13-.2,0s.09,0-.09-.07c.29.17-.09-.09-.16-.15.19.2.15.1-.13-.3s-.28-.53-.21-.27a2.52,2.52,0,0,0,3.08,1.75,2.57,2.57,0,0,0,1.75-3.08c-.41-1.9-2.49-2.87-4.28-2.87a10.47,10.47,0,0,0-1.48.16l-.51.07c-.3,0,.44,0,0,0h-.49c-.43,0,0,0,.13,0-.23-.11-.56-.13-.81-.22s0-.15.11,0a1.11,1.11,0,0,0-.35-.16l-.68-.37c-.47-.27-.93-.56-1.41-.81a7.73,7.73,0,0,0-4-1.06,2.5,2.5,0,0,0,0,5Z"/><path class="cls-1" d="M67.45,54.44a31,31,0,0,1,2.22,2.22c.34.38.68.78,1,1.18l.22.27c.29.36-.21-.29,0,0s.31.41.45.62a28.06,28.06,0,0,1,1.58,2.48c.24.44.47.88.69,1.33.1.22.21.44.31.67a2.71,2.71,0,0,0,.13.3c-.32-.59-.06-.14,0,0A2.72,2.72,0,0,0,75.17,65a2.56,2.56,0,0,0,1.93.26c1.16-.38,2.27-1.78,1.74-3.08A30.53,30.53,0,0,0,71,50.9a2.5,2.5,0,0,0-3.53,3.54Z"/><path class="cls-1" d="M67.91,56.12c.08.1.22.29.06.07a4.81,4.81,0,0,1,.27.41,8.54,8.54,0,0,1,.51.94s.21.46.12.24S69,58,69,58c.13.33.25.67.36,1a29.51,29.51,0,0,0,1.6,4.16c.6,1.18,1.38,2.26,2,3.4.18.31.36.61.52.93l.2.42c-.11-.23-.06-.16,0,0s.18.65.27,1,0-.34,0,0c0,.18,0,.38,0,.56a2.52,2.52,0,0,0,2.5,2.5,2.55,2.55,0,0,0,2.5-2.5c.13-3.36-2.13-5.84-3.61-8.62l-.21-.42s-.27-.62-.17-.36-.08-.22-.09-.26-.14-.37-.2-.56c-.24-.67-.45-1.36-.68-2a14.42,14.42,0,0,0-2.55-4.68,2.51,2.51,0,0,0-3.53,0,2.56,2.56,0,0,0,0,3.54Z"/><path class="cls-1" d="M72.23,60.74c.33.3.65.61,1,.94l.46.53c.21.25-.05-.05-.11-.15l.18.25c.25.35.48.71.7,1.08.11.2.21.4.31.6s.08.18.13.27c.19.4-.16-.41,0-.12a11.64,11.64,0,0,1,.39,1.18,5.09,5.09,0,0,1,.14.56l.06.29c0,.07.08.55,0,.09s0,.2,0,.32l0,.65c0,.19,0,.38,0,.57s-.1,1,0,.2a2.81,2.81,0,0,0,.25,1.93,2.51,2.51,0,0,0,3.42.9,2.37,2.37,0,0,0,1.15-1.5,12.7,12.7,0,0,0-.66-6.52,14.63,14.63,0,0,0-3.87-5.6,2.5,2.5,0,0,0-3.53,3.53Z"/><path class="cls-1" d="M75.53,66.32c1.1,5.87-.07,11.85-2.36,17.3a2.52,2.52,0,0,0,1.75,3.08A2.57,2.57,0,0,0,78,85a34.79,34.79,0,0,0,2.36-20,2.52,2.52,0,0,0-3.08-1.75,2.55,2.55,0,0,0-1.74,3.08Z"/><path class="cls-1" d="M73.39,70.55a48.82,48.82,0,0,0-2.21,9.84c-.07.76-.08,1.52-.14,2.28a4.26,4.26,0,0,1-.1.82c0,.2-.1.4-.16.59s-.13.38,0,.19-.24.41-.28.48c-.16.24-.17.25,0,0a3.26,3.26,0,0,1-.31.33c-.22.19-.23.21,0,0a3.34,3.34,0,0,1-.4.25c-.26.13-.28.14-.06,0l-.48.13a2.5,2.5,0,1,0,1.33,4.82,7,7,0,0,0,4.17-3,9.93,9.93,0,0,0,1.43-5.24,43.85,43.85,0,0,1,2.14-10.34,2.5,2.5,0,1,0-4.82-1.33Z"/><path class="cls-1" d="M72.06,79.58a44.65,44.65,0,0,1-4,4.93c-.76.82-1.54,1.61-2.35,2.38a5.93,5.93,0,0,1-2.22,1.64,25.9,25.9,0,0,0-3.13.87,25.36,25.36,0,0,1-2.83,1.25,43.36,43.36,0,0,1-7,1,2.58,2.58,0,0,0-2.5,2.5,2.51,2.51,0,0,0,2.5,2.5,58.66,58.66,0,0,0,8.16-1.12A27,27,0,0,0,62.27,94c1.1-.47,2.32-.49,3.44-1C68,92.13,69.85,90,71.5,88.2a52.17,52.17,0,0,0,4.88-6.1,2.54,2.54,0,0,0-.9-3.42,2.56,2.56,0,0,0-3.42.9Z"/><path class="cls-1" d="M60.67,93.4a41.46,41.46,0,0,0,7.79-3.24,2.53,2.53,0,0,0,.9-3.42,2.56,2.56,0,0,0-3.42-.89c-1.08.58-2.18,1.11-3.31,1.59l.6-.26a38.35,38.35,0,0,1-3.89,1.4,2.5,2.5,0,0,0,1.33,4.82Z"/><path class="cls-1" d="M68.2,87.72c-6.29,3.75-13.81,4.71-20.93,5.7-2.78.39-2.14,5.12.66,4.91a59.59,59.59,0,0,0,10.53-1.71l-1.93-4.57a11.21,11.21,0,0,1-5.38,1.87,31.75,31.75,0,0,1-7,.3c-2.31-.26-4.15-1.76-6-3l-6.76-4.71.89,3.42c-.05.09-.43,0,.18-.16a3.44,3.44,0,0,1,1-.17,8.2,8.2,0,0,1,2.66.71,48.3,48.3,0,0,0,6.22,2A100.48,100.48,0,0,0,56.11,94.1a2.52,2.52,0,0,0,2.5-2.5,2.55,2.55,0,0,0-2.5-2.5c-5.06-.45-10.16-.91-15-2.39-2.4-.72-4.68-2-7.22-2.14A6.23,6.23,0,0,0,28,87.36a2.58,2.58,0,0,0,.9,3.42l7.38,5.14A16,16,0,0,0,44,99.2a35.2,35.2,0,0,0,7.87-.38,15.25,15.25,0,0,0,7.17-2.45c2.2-1.6,1-5.32-1.93-4.57a52.13,52.13,0,0,1-9.2,1.53l.66,4.92C56.18,97.18,64,96,70.72,92c2.76-1.65.25-6-2.52-4.32Z"/><path class="cls-1" d="M79.1,89c5.49-1.25,11.17-.94,16.75-.66l-.67-4.91c-3.43,1.38-6.83,1.07-10.44,1.12a63,63,0,0,0-11.53,1.27,2.52,2.52,0,0,0-1.74,3.07,2.55,2.55,0,0,0,3.07,1.75,56.1,56.1,0,0,1,11-1.09c3.74,0,7.38.12,10.92-1.3a2.5,2.5,0,0,0-.66-4.91c-6-.3-12.13-.52-18.08.84A2.5,2.5,0,0,0,79.1,89Z"/><path class="cls-1" d="M9.11,92a263.26,263.26,0,0,0,20-42.83,2.52,2.52,0,0,0-1.74-3.08,2.56,2.56,0,0,0-3.08,1.75A256.31,256.31,0,0,1,4.8,89.5C3.17,92.29,7.49,94.81,9.11,92Z"/><path class="cls-1" d="M48.65,40.41,49.51,25c.28-5.06.64-10.16-.73-15.1a2.52,2.52,0,0,0-4.82,0,26.51,26.51,0,0,0-.73,7.94c0,2.38.17,4.94-.83,7.17l4.66,1.26L46.78,16.2l-.13-4.92-.07-2.46c0-.24.12-.85,0-1,0,0-.12.23-.05.17l-1.1.65a2.61,2.61,0,0,1-1.3-.73l-.34-1.26V6.8l.34-1.27-.1.19c-1.53,2.83,2.78,5.36,4.32,2.53,1.35-2.51-1-5.11-3.69-4.62-3.11.59-3.11,3.67-3,6.17l.45,16.49c.07,2.28,3.59,3.66,4.66,1.26a19.58,19.58,0,0,0,1.53-8.39c0-2.66-.23-5.33.53-7.91H44c1.28,4.64.78,9.51.52,14.26l-.83,14.9c-.17,3.22,4.83,3.21,5,0Z"/><path class="cls-1" d="M55.66,6.81C51.87,4.47,47,3.55,42.69,3A18.4,18.4,0,0,0,29.53,6.13c-6.81,4.65-11.14,12.44-9.89,20.78a21.63,21.63,0,0,0,6.55,12.15c2.32,2.24,5.86-1.3,3.54-3.53-4.64-4.47-6.74-11-4.24-17.15s9-11.18,15.69-10.61A43.63,43.63,0,0,1,47.47,9a19.07,19.07,0,0,1,5.67,2.14c2.75,1.7,5.26-2.63,2.52-4.31Z"/><path class="cls-1" d="M29.75,43c2.69-4.38,5.43-8.73,8-13.16a50.1,50.1,0,0,0,5.88-13.48c.76-3.13-4.07-4.46-4.82-1.33a47,47,0,0,1-5.61,12.68C30.69,32,28,36.23,25.44,40.48c-1.69,2.75,2.63,5.26,4.31,2.52Z"/><path class="cls-1" d="M46.59,32.49a23.84,23.84,0,0,0,.64-6.3,2.59,2.59,0,0,0-.73-1.77,2.49,2.49,0,0,0-1.77-.73,2.52,2.52,0,0,0-1.77.73,2.59,2.59,0,0,0-.73,1.77,20.52,20.52,0,0,1-.17,3.59l.09-.66c-.1.69-.22,1.37-.38,2.05A2.62,2.62,0,0,0,42,33.09a2.5,2.5,0,0,0,4.57-.6Z"/><path class="cls-1" d="M51.5,63.23V52.35a2.5,2.5,0,1,0-5,0V63.23a2.5,2.5,0,0,0,5,0Z"/><path class="cls-1" d="M43.66,31.28a9.51,9.51,0,0,0-.79,7.07A2.6,2.6,0,0,0,44,39.84a2.5,2.5,0,0,0,1.93.25A2.54,2.54,0,0,0,47.44,39,2.6,2.6,0,0,0,47.69,37a6.16,6.16,0,0,1-.21-1l.09.66a6.93,6.93,0,0,1,0-1.82l-.09.67A7.2,7.2,0,0,1,48,33.75l-.26.6A5.6,5.6,0,0,1,48,33.8a2.65,2.65,0,0,0,.25-1.93,2.56,2.56,0,0,0-1.15-1.49,2.5,2.5,0,0,0-3.42.9Z"/><path class="cls-1" d="M72.9,58.15a17,17,0,0,1,1.91,2c.06.07.16.28.25.31-.08,0-.32-.42-.11-.13s.28.38.41.58c.27.39.51.79.75,1.2s.42.78.61,1.19c.06.11.11.23.17.35l0,.07c-.16-.36,0,0,0,.06s.09.25.14.37a18.38,18.38,0,0,1,.75,2.73A2.51,2.51,0,0,0,80.9,68.6a2.56,2.56,0,0,0,1.75-3.07,19.89,19.89,0,0,0-6.21-10.92,2.5,2.5,0,1,0-3.54,3.54Z"/><path class="cls-1" d="M64.8,55.13a13.59,13.59,0,0,1,2.36,1.45l-.51-.39a13.8,13.8,0,0,1,2.45,2.44l-.39-.51c.19.26.37.51.55.78a2.67,2.67,0,0,0,1.49,1.15,2.5,2.5,0,0,0,3.08-1.75,2.55,2.55,0,0,0-.25-1.93,16.18,16.18,0,0,0-6.25-5.56,2.75,2.75,0,0,0-1.93-.25,2.52,2.52,0,0,0-1.75,3.08,2.5,2.5,0,0,0,1.15,1.49Z"/><path class="cls-1" d="M47.5,40.59a4.62,4.62,0,0,0,.1-1.23,5,5,0,0,0-.23-1.21,1.89,1.89,0,0,0-.45-.85,2,2,0,0,0-.7-.65,1.85,1.85,0,0,0-.93-.29,1.89,1.89,0,0,0-1,0l-.59.25a2.5,2.5,0,0,0-.9.9l-.25.6a2.5,2.5,0,0,0,0,1.33,2.12,2.12,0,0,1,.13.51l-.09-.67a2.18,2.18,0,0,1,0,.57l.09-.67v.05a2.73,2.73,0,0,0,.25,1.92,1.83,1.83,0,0,0,.65.7,1.89,1.89,0,0,0,.85.45l.66.09a2.53,2.53,0,0,0,1.26-.34l.51-.39a2.48,2.48,0,0,0,.64-1.11Z"/><path class="cls-1" d="M46.77,74.8c3.21,0,3.22-5,0-5s-3.23,5,0,5Z"/><path class="cls-1" d="M61.51,97.27a41.71,41.71,0,0,0,6.13-6.19,67.47,67.47,0,0,0,5.47-7.25c1.64-2.68,2-5.89,2.58-8.92.61-3.26,1.14-6.54,1.43-9.84l-4.91.66c.64,1.68,1.24,3.37,1.78,5.07.26.83,1.1,2.41.53,3.22a2.52,2.52,0,0,0,.9,3.42,2.55,2.55,0,0,0,3.42-.9c1.18-1.69.94-3.79.4-5.66-.63-2.19-1.4-4.35-2.21-6.48a2.51,2.51,0,0,0-4.91.67c-.25,2.86-.72,5.69-1.25,8.51s-.76,5.72-2.31,8.08A51.71,51.71,0,0,1,58,93.73a2.52,2.52,0,0,0,0,3.54,2.55,2.55,0,0,0,3.53,0Z"/><path class="cls-1" d="M36,91.13a1.94,1.94,0,0,0,.21.34,6.73,6.73,0,0,0,.62.79,7.82,7.82,0,0,0,.77.63,3.78,3.78,0,0,0,.33.22,9.52,9.52,0,0,0,.92.41,1.82,1.82,0,0,0,.38.11,6.9,6.9,0,0,0,1,.15,2.94,2.94,0,0,0,.42,0,1.88,1.88,0,0,0,1-.22A1.85,1.85,0,0,0,42.4,93a1.83,1.83,0,0,0,.51-.8,1.88,1.88,0,0,0,.22-1L43,90.61a2.5,2.5,0,0,0-.64-1.1l-.51-.39a2.43,2.43,0,0,0-1.26-.34,2.44,2.44,0,0,1-.54,0l.66.09a2.52,2.52,0,0,1-.65-.18l.59.25a3,3,0,0,1-.59-.35l.51.39a2.5,2.5,0,0,1-.43-.43l.39.51a2.2,2.2,0,0,1-.27-.43,1.88,1.88,0,0,0-.64-.7,2,2,0,0,0-.85-.45,1.89,1.89,0,0,0-1,0,1.85,1.85,0,0,0-.93.29l-.51.39a2.53,2.53,0,0,0-.64,1.11l-.09.66A2.53,2.53,0,0,0,36,91.13Z"/></g><g id="Layer_1-2" data-name="Layer 1"><path class="cls-2" d="M39.78,86.18c0-.53.11-.88.11-1.24,0-10.72,0-21.45.06-32.18,0-.89-.33-1.17-1.38-1.13-2.52.08-5,.14-7.56.14a1.8,1.8,0,0,0-1.94,1.17Q21.24,70.73,13.33,88.49c-.79,1.78-1.54,3.56-2.29,5.35a2.35,2.35,0,0,1-2.5,1.51c-2,0-4,0-5.93,0-2.43,0-3.1-.81-2.27-2.68Q6.67,78.53,13,64.45c1.67-3.73,3.37-7.44,5.05-11.16.14-.3.22-.62.37-1.06H12c-2.92,0-5.85,0-8.76,0-1.93,0-2.52-1.06-1.54-2.4,1.69-2.31,3.42-4.61,5.11-6.93a2.78,2.78,0,0,1,2.44-1.13c4.13,0,8.27-.15,12.41-.24.79,0,1.59.07,2-.75s.12-1.37-.5-2C13.57,29,14.82,13.54,26,5.13A25.26,25.26,0,0,1,47.15.64,23.43,23.43,0,0,1,58.26,6.49a2,2,0,0,1,.51,2.59c-.78,1.42-1.54,2.85-2.42,4.23s-2,1.39-3.22.16c-.35-.37-.75-.7-1.42-1.32-.06.71-.12,1.09-.13,1.46l-.06,25.72c0,1.53,0,1.54,1.9,1.49,6.11-.13,12.22-.29,18.34-.39,2.58,0,2.83-.29,3.38,2.14s1,5.14,1.54,7.68a9.56,9.56,0,0,0-2.22.13,31.19,31.19,0,0,1,8.33,15.37,27.22,27.22,0,0,1-2.21,16.12c.79,0,1.34.1,1.9.1l14.44,0c2.44,0,2.93.35,3,2.37.07,1.59.08,3.19,0,4.79s-.67,2-2.44,2.15c-.89.08-1.8,0-2.69,0-6.57,0-13.14,0-19.71-.07a4,4,0,0,0-2.74.93C58.6,103.3,38,102.49,25.5,90.3c-1.24-1.21-1.29-1.74.11-2.84,1.91-1.52,3.93-2.94,5.89-4.4a2.28,2.28,0,0,1,3,0c1.27.88,2.62,1.69,3.95,2.5A10.52,10.52,0,0,0,39.78,86.18ZM60.54,50.82s3.38,2.09,4.62,3c11.1,8,12,22.85,1.81,31.68-6.86,6-15.16,7.81-24.73,5.16a24.37,24.37,0,0,1-8.72-4.72c-.45-.35-.83-.84-1.55-.28-1.15.88-2.33,1.74-3.52,2.59-.65.48-.6.89,0,1.4A30.79,30.79,0,0,0,48.79,97.9a31.8,31.8,0,0,0,23-8.36,25.68,25.68,0,0,0,2.25-36.2c-1.49-1.74-2.71-2.47-5.82-2.45M51.59,66.71h0c0,4.63,0,9.27,0,13.9,0,1.09.43,1.4,1.72,1.38,3-.07,6-.06,9,0a3,3,0,0,0,2.58-1.1c5-6,6-12.5,2.58-19.22-2.65-5.25-7.36-8.8-14.27-10.06-1.53-.28-1.63-.18-1.63,1.08Zm20.8-18.83c.78,0,1.08-.22.92-.86-.2-.84-.42-1.67-.54-2.52s-.71-1.13-1.74-1.09c-8.85.27-26.55.74-26.55.74s-22.73.59-34.1.91a3.32,3.32,0,0,0-1.94.5A45.8,45.8,0,0,0,5.5,49.32c.83,0,1.31.11,1.79.11,4.09-.07,8.18-.13,12.27-.24M44.14,86.32c0,1,.44,1.37,1.59,1.47a23.78,23.78,0,0,0,9.55-.89c1.55-.5,3-1.2,4.51-1.81l-.18-.44c-2.33,0-4.66,0-7,0a26.82,26.82,0,0,1-2.68-.19c-1.16-.13-1.61-.65-1.6-1.67,0-9.61,0-19.21,0-28.82,0-2.54,0-2.51-3.07-2.49-1,0-1.39.25-1.35,1.15M48.54,6.33s-.1-1-.42-1.17c-2-1.1-4.47,0-4.57,1.92,0,.08,0,.15,0,.23-.05,10.31-.13,20.62-.14,30.94,0,3.2-.63,2.72,3.46,2.74,1.27,0,1.61-.39,1.6-1.38M40.35,3.67c-.6,0-1,0-1.29,0A20.5,20.5,0,0,0,27.87,8.33c-8.39,7.12-9.77,18.4-3.18,26.7a12.56,12.56,0,0,0,1,1c1-1.57,1.58-2.77.47-4.47-6.65-10.23.32-23,12.12-24.85A1.8,1.8,0,0,0,39.31,6,21.75,21.75,0,0,0,40.35,3.67ZM26.09,52.1c-2.45-.38-2.59-.29-3.43,1.56Q15,70.52,7.27,87.39c-.76,1.65-1.47,3.31-2.21,5,2.51.35,2.79.26,3.39-1.09q7.62-16.91,15.22-33.8C24.46,55.72,25.25,54,26.09,52.1Zm2.25-21.67L37.87,9.07C27.85,11,22.86,22.75,28.34,30.43ZM40.78,14.18l-.64,0q-6.2,13.5-12.39,27.05c3,.38,3.16.3,4.06-1.7,2.78-6.14,5.74-12.24,8.24-18.46C40.89,18.9,40.57,16.47,40.78,14.18ZM76.24,88.55h1.92c5,0,10.08,0,15.12,0,4,0,3.26.54,3.33-2.86v-.11c0-.62-.34-.85-1.07-.85-5.22,0-10.44,0-15.66,0a1.7,1.7,0,0,0-1.12.46C77.94,86.15,77.22,87.21,76.24,88.55ZM51.81,5.73c-.7,3.26-.14,4.31,2.87,5.68A9.7,9.7,0,0,0,55.61,10c.18-.42.42-1.11.18-1.31C54.6,7.66,53.26,6.77,51.81,5.73Zm-13,26.11-.31-.07c-.75,1.65-1.5,3.29-2.24,4.94s.31,2.79,2.55,2.93Z"/></g></g></svg>