<svg xmlns="http://www.w3.org/2000/svg" viewBox="0 0 115.81 83"><defs><style>.cls-1{fill:none;stroke:#59bbf2;stroke-linecap:round;stroke-linejoin:round;stroke-width:3px;}</style></defs><g id="Layer_2" data-name="Layer 2"><g id="Layer_1-2" data-name="Layer 1"><path class="cls-1" d="M114.31,55.48v-.12s0,0,0,0,0-.05,0-.07v0a0,0,0,0,0,0,0,.07.07,0,0,0,0,0s0,0,0,0,0,0,0-.05l0,0s0,0,0,0l0,0s0,0,0,0,0,0,0,0H79a27.07,27.07,0,0,1-10.27-1.64l19.4-10.15s0,0,0,0A21.13,21.13,0,0,0,98.69,24.19,23.41,23.41,0,0,0,75.34,1.5h-.73a26,26,0,0,0-9.46,2.11s0,0,0,0L16.44,29.33A26,26,0,0,0,1.51,53.62,28.77,28.77,0,0,0,30.19,81.5c.28,0,.58,0,.89,0H65.65l.09,0a.58.58,0,0,0,.28-.07L114,56s0,0,0,0,0,0,0,0,0,0,0,0l.05-.05,0,0s0,0,0,0,0,0,0-.05,0,0,0,0,0,0,0,0V55.5S114.31,55.5,114.31,55.48Z"/><path class="cls-1" d="M16.59,29.28a25.63,25.63,0,0,1,10.49-2.2,23,23,0,0,1,23,23.13A20.72,20.72,0,0,1,29.26,70.9,18.67,18.67,0,0,1,10.65,52.16,16.82,16.82,0,0,1,27.5,35.39,15.1,15.1,0,0,1,42.57,50.56,13.62,13.62,0,0,1,28.91,64.14a12.24,12.24,0,0,1-12.2-12.29,11,11,0,0,1,11.05-11,10,10,0,0,1,9.9,10,8.91,8.91,0,0,1-9,8.9,8,8,0,0,1-8-8A7.24,7.24,0,0,1,28,44.46a13.57,13.57,0,0,1,9.26,3.87"/><path class="cls-1" d="M71.85,51.83,40,68.08"/></g></g></svg>