<svg xmlns="http://www.w3.org/2000/svg" viewBox="0 0 561.54 462.84"><defs><style>.cls-1{fill:#61bae8;}</style></defs><g id="Layer_2" data-name="Layer 2"><g id="Layer_1-2" data-name="Layer 1"><path class="cls-1" d="M296.15,440.63c-9.89-.16-19.78-.32-29.67-.55-32.21-.73-64,3.18-95.5,9.79-22.63,4.75-45.31,9.41-68.34,11.75-19.08,1.94-38.17,2.19-56.72-4a66.38,66.38,0,0,1-45.68-59c-1.47-20.94,4-40.5,10.77-59.84,9.45-26.89,22.17-52.39,33.66-78.41s19.26-52.89,25.73-80.35c5.84-24.8,12-49.5,22.09-73,13.7-31.92,35.58-56.33,66.41-72.65,22-11.63,45.54-17.8,70-21.31,21.07-3,42.27-4.19,63.52-5,22.31-.82,44.63-1.94,66.87-4.05C386.37,1.51,413.51-.79,440.77.26,460.2,1,479.34,3.82,497.36,11.7c26.78,11.7,44,32.32,54.32,59.12,6.6,17.11,9.25,35,9.76,53.26,1,34.86-5.63,68.67-14.14,102.23-7.25,28.62-17.08,56.23-31.36,82.17a302.54,302.54,0,0,1-37.14,53.25A277,277,0,0,1,413.66,417c-18.47,11.19-38.69,17.35-60,20.43C334.6,440.25,315.4,440.81,296.15,440.63Z"/></g></g></svg>