<svg xmlns="http://www.w3.org/2000/svg" viewBox="0 0 2279 865"><defs><style>.cls-1{fill:#e8f6fe;}</style></defs><g id="Layer_2" data-name="Layer 2"><g id="Layer_1-2" data-name="Layer 1"><path class="cls-1" d="M2260.37,859.36c-155.5,22.48-164.45-29.5-323.9-29.5s-159.34,29.87-318.79,29.87-159.33-29.87-318.79-29.87-159.33,29.87-318.78,29.87-159.34-29.87-318.79-29.87S502,859.73,342.53,859.73s-158.17-7-313.67-29.5C-6.13,825.15.5,821.71.5,798.71S47,775.63,47,752.63.5,729.55.5,706.54,47,683.46,47,660.46.5,637.38.5,614.37,47,591.29,47,568.29s-63.34-55.65-28.36-60.65c155.5-22.48,164.45,29.5,323.9,29.5s159.34-29.87,318.79-29.87,159.33,29.87,318.79,29.87,159.33-29.87,318.78-29.87,159.34,29.87,318.79,29.87,159.34-29.87,318.79-29.87,158.17,7,313.67,29.5c35,5.08,28.36,8.51,28.36,31.52S2232,591.37,2232,614.37s46.49,23.08,46.49,46.09S2232,683.54,2232,706.54s46.49,23.08,46.49,46.09-54.62,27.41-45.79,49.74C2245.49,834.71,2295.35,854.28,2260.37,859.36Z"/><path class="cls-1" d="M2260.37,557.14c-155.5,22.48-164.45-29.5-323.9-29.5s-159.34,29.87-318.79,29.87-159.33-29.87-318.79-29.87-159.33,29.87-318.78,29.87-159.34-29.87-318.79-29.87S502,557.51,342.53,557.51s-158.17-7-313.67-29.5C-6.13,522.93.5,519.49.5,496.49S47,473.41,47,450.4.5,427.33.5,404.32,47,381.24,47,358.24.5,335.16.5,312.15,47,289.07,47,266.07s-63.34-55.65-28.36-60.65c155.5-22.48,164.45,29.5,323.9,29.5s159.34-29.87,318.79-29.87,159.33,29.87,318.79,29.87,159.33-29.87,318.78-29.87,159.34,29.87,318.79,29.87,159.34-29.87,318.79-29.87,158.17,7,313.67,29.5c35,5.08,28.36,8.51,28.36,31.52S2232,289.15,2232,312.15s46.49,23.08,46.49,46.09S2232,381.32,2232,404.32s46.49,23.08,46.49,46.08-54.62,27.42-45.79,49.75C2245.49,532.49,2295.35,552.06,2260.37,557.14Z"/><path class="cls-1" d="M2260.4,357.36c-154.72,22.48-163.62-29.5-322.27-29.5S1779.59,357.73,1621,357.73s-158.53-29.87-317.19-29.87-158.53,29.87-317.18,29.87S828.05,327.86,669.4,327.86s-158.53,29.87-317.18,29.87-157.38-7-312.1-29.5c-34.8-5.08-28.21-8.52-28.21-31.52s46.25-23.08,46.25-46.08-46.25-23.08-46.25-46.09,46.25-23.08,46.25-46.08-46.25-23.08-46.25-46.09S58.16,89.29,58.16,66.29-4.86,10.64,30,5.64c154.72-22.48,163.62,29.5,322.27,29.5S510.75,5.27,669.4,5.27,827.93,35.14,986.58,35.14,1145.11,5.27,1303.76,5.27,1462.3,35.14,1621,35.14,1779.48,5.27,1938.13,5.27s157.37,7,312.09,29.5c34.81,5.08,28.22,8.51,28.22,31.52s-46.26,23.08-46.26,46.08,46.26,23.08,46.26,46.09-46.26,23.08-46.26,46.08,46.26,23.08,46.26,46.09-54.35,27.41-45.56,49.74C2245.59,332.71,2295.2,352.28,2260.4,357.36Z"/></g></g></svg>