<svg id="Layer_1" data-name="Layer 1" xmlns="http://www.w3.org/2000/svg" viewBox="0 0 1920 363"><defs><style>.cls-1{fill:#e7f7ff;}</style></defs><path class="cls-1" d="M2087.58,358c-155.74,19.84-164.7-26-324.39-26s-159.59,26.36-319.28,26.36S1284.34,332,1124.64,332s-159.57,26.36-319.27,26.36S645.8,332,486.1,332s-159.57,26.36-319.27,26.36-158.41-6.19-314.14-26c-35-4.49-28.4-7.52-28.4-27.82s46.55-20.37,46.55-40.67-46.55-20.37-46.55-40.67,46.55-20.36,46.55-40.67-46.55-20.36-46.55-40.66,46.55-20.37,46.55-40.67-63.43-49.11-28.4-53.53c155.74-19.84,164.7,26,324.39,26S326.41,47.3,486.1,47.3,645.68,73.67,805.37,73.67,965,47.3,1124.64,47.3s159.58,26.37,319.27,26.37S1603.49,47.3,1763.19,47.3s158.4,6.2,314.14,26c35,4.48,28.4,7.51,28.4,27.82s-46.56,20.36-46.56,40.67,46.56,20.36,46.56,40.66-46.56,20.37-46.56,40.67,46.56,20.37,46.56,40.67-54.7,24.19-45.86,43.9C2072.67,336.27,2122.61,353.54,2087.58,358Z"/><path class="cls-1" d="M2087.58,315.37c-155.74,19.84-164.7-26-324.39-26S1603.6,315.7,1443.91,315.7s-159.57-26.37-319.27-26.37S965.07,315.7,805.37,315.7,645.8,289.33,486.1,289.33,326.53,315.7,166.83,315.7s-158.41-6.2-314.14-26c-35-4.48-28.4-7.52-28.4-27.82s46.55-20.36,46.55-40.67-46.55-20.36-46.55-40.66,46.55-20.37,46.55-40.67-46.55-20.37-46.55-40.67,46.55-20.37,46.55-40.67S-192.59,9.39-157.56,5C-1.82-14.86,7.14,31,166.83,31S326.41,4.65,486.1,4.65,645.68,31,805.37,31,965,4.65,1124.64,4.65,1284.22,31,1443.91,31,1603.49,4.65,1763.19,4.65s158.4,6.19,314.14,26c35,4.49,28.4,7.52,28.4,27.82s-46.56,20.37-46.56,40.67,46.56,20.37,46.56,40.67-46.56,20.36-46.56,40.67,46.56,20.36,46.56,40.66-54.7,24.2-45.86,43.9C2072.67,293.61,2122.61,310.88,2087.58,315.37Z"/></svg>